<?xml version="1.0" encoding="utf-8"?>
<!-- Generator: Adobe Illustrator 22.1.0, SVG Export Plug-In . SVG Version: 6.00 Build 0)  -->
<svg version="1.1" xmlns="http://www.w3.org/2000/svg" xmlns:xlink="http://www.w3.org/1999/xlink" x="0px" y="0px"
	 viewBox="0 0 425.2 453" style="enable-background:new 0 0 425.2 453;" xml:space="preserve">
<style type="text/css">
	.st0{fill:#FFFFFF;}
	.st1{fill:#494949;}
</style>
<g id="图层_2">
	<rect x="-27.8" y="-28.6" class="st0" width="480.8" height="512.2"/>
</g>
<g id="图层_1">
	<path class="st1" d="M292.4,269.9c-2.4-2.4-6.4-2.4-8.9,0c-2.4,2.4-2.4,6.4,0,8.9c19,19,29.4,44.1,29.4,70.9c0,3.5,2.8,6.3,6.3,6.3
		s6.3-2.8,6.3-6.3C325.5,319.6,313.7,291.2,292.4,269.9z M212.6,99c-41.5,0-75.2,33.8-75.2,75.2c0,29.6,17.2,55.3,42.1,67.5
		c-17.4,5.3-33.4,14.9-46.6,28.1c-21.3,21.3-33.1,49.7-33.1,79.8c0,3.5,2.8,6.3,6.3,6.3c3.5,0,6.3-2.8,6.3-6.3
		c0-26.8,10.4-52,29.4-70.9c18.3-18.3,42.3-28.6,68.1-29.3c1,0,1.9,0.1,2.9,0.1c41.5,0,75.2-33.8,75.2-75.2S254.1,99,212.6,99z
		 M213.6,236.9c-0.3-0.1-0.7-0.1-1-0.1c-1,0-1.9,0-2.9,0c-33.2-1.5-59.8-29-59.8-62.6c0-34.6,28.1-62.7,62.7-62.7
		s62.7,28.1,62.7,62.7C275.3,208.5,247.7,236.4,213.6,236.9z"/>
</g>
</svg>
